<?xml version="1.0" encoding="UTF-8" standalone="no" ?>
<!DOCTYPE svg PUBLIC "-//W3C//DTD SVG 1.1//EN" "http://www.w3.org/Graphics/SVG/1.1/DTD/svg11.dtd">
<svg xmlns="http://www.w3.org/2000/svg" xmlns:xlink="http://www.w3.org/1999/xlink" version="1.1" width="500" height="500" viewBox="0 0 500 500" xml:space="preserve">
<desc>Created with Fabric.js 4.6.0</desc>
<defs>
</defs>
<g transform="matrix(1.28 0.93 -2.24 3.09 244.15 242.28)" id="Z0wQfUiJfqGKjN4mx9Ou7"  >
<path style="stroke: rgb(230,228,223); stroke-width: 0; stroke-dasharray: none; stroke-linecap: butt; stroke-dashoffset: 0; stroke-linejoin: miter; stroke-miterlimit: 4; fill: rgb(0,96,224); fill-rule: nonzero; opacity: 1;" vector-effect="non-scaling-stroke"  transform=" translate(0, 0)" d="M -56.91057 -46.87996 C -56.91057 -52.419709999999995 -46.10044 -56.91056999999999 -32.765460000000004 -56.91056999999999 L 32.76546999999999 -56.91056999999999 L 32.76546999999999 -56.91056999999999 C 46.100449999999995 -56.91056999999999 56.910579999999996 -52.419709999999995 56.910579999999996 -46.87996 L 56.910579999999996 46.87997 L 56.910579999999996 46.87997 C 56.910579999999996 52.41972 46.100449999999995 56.910579999999996 32.76546999999999 56.910579999999996 L -32.765460000000004 56.910579999999996 L -32.765460000000004 56.910579999999996 C -46.100440000000006 56.910579999999996 -56.91057000000001 52.41972 -56.91057000000001 46.87997 z" stroke-linecap="round" />
</g>
<g transform="matrix(1.96 0 0 1.96 352.56 192)" id="vi_J_NvfYta2HXuSXGaTy"  >
<path style="stroke: rgb(60,167,138); stroke-width: 0; stroke-dasharray: none; stroke-linecap: butt; stroke-dashoffset: 0; stroke-linejoin: miter; stroke-miterlimit: 4; fill: rgb(63,225,176); fill-rule: nonzero; opacity: 1;" vector-effect="non-scaling-stroke"  transform=" translate(0, 0)" d="M -52.84553 -30.359 C -52.84553 -42.77796 -42.777969999999996 -52.84552 -30.359009999999998 -52.84552 L 30.359 -52.84552 L 30.359 -52.84552 C 42.77796 -52.84552 52.84552 -42.77796 52.84552 -30.359 L 52.84552 30.359009999999998 L 52.84552 30.359009999999998 C 52.84552 42.777969999999996 42.77796 52.84553 30.359 52.84553 L -30.359009999999998 52.84553 L -30.359009999999998 52.84553 C -42.777969999999996 52.84553 -52.84553 42.777969999999996 -52.84553 30.359009999999998 z" stroke-linecap="round" />
</g>
<g transform="matrix(1.61 -1.12 1.12 1.61 300.39 341.22)" id="70aWVWPIrqjEjmF7_EQUb"  >
<path style="stroke: rgb(60,167,138); stroke-width: 0; stroke-dasharray: none; stroke-linecap: butt; stroke-dashoffset: 0; stroke-linejoin: miter; stroke-miterlimit: 4; fill: rgb(255,106,117); fill-rule: nonzero; opacity: 1;" vector-effect="non-scaling-stroke"  transform=" translate(0, 0)" d="M -52.84553 -30.31161 C -52.84553 -42.756750000000004 -42.75675 -52.84552 -30.311619999999998 -52.84552 L 30.31161 -52.84552 L 30.31161 -52.84552 C 42.756750000000004 -52.84552 52.84552 -42.75674 52.84552 -30.31161 L 52.84552 30.311619999999998 L 52.84552 30.311619999999998 C 52.84552 42.75676 42.75674 52.84553 30.31161 52.84553 L -30.311619999999998 52.84553 L -30.311619999999998 52.84553 C -42.75676 52.84553 -52.84553 42.75675 -52.84553 30.311619999999998 z" stroke-linecap="round" />
</g>
</svg>